<svg width="90" height="90" viewBox="0 0 90 90" fill="none" xmlns="http://www.w3.org/2000/svg">
<circle cx="45" cy="45" r="44.5" fill="#B6B6B6" stroke="white"/>
<path d="M45.5042 61.9999C37.1711 62.0269 30.3833 56.0889 29.1903 48.1651C28.1439 41.2083 31.4825 34.3573 37.4749 31.166C38.6605 30.5346 39.8778 31.0969 40.0993 32.378C40.2248 33.1054 39.8398 33.8058 39.0445 34.2418C37.462 35.1082 36.078 36.3094 34.9845 37.7655C29.2494 45.3375 33.4771 56.6177 42.6847 58.3003C49.598 59.5641 56.0989 55.0118 57.4037 47.9924C58.4195 42.5282 55.8447 37.0122 51.021 34.2634C50.641 34.0517 50.3171 33.7487 50.0769 33.3806C49.6856 32.733 49.8501 31.9322 50.3606 31.4056C50.8965 30.853 51.6728 30.73 52.3943 31.1109C54.5896 32.2591 56.4874 33.9235 57.9322 35.9675C64.797 45.63 59.546 59.359 48.0896 61.6772C47.0738 61.8877 46.0337 61.9373 45.5042 61.9999Z" fill="white"/>
<path d="M46.673 34.64C46.673 36.5827 46.673 38.5217 46.673 40.4572C46.673 41.5364 45.942 42.3307 44.9768 42.3189C44.0275 42.307 43.3112 41.5224 43.3102 40.4841C43.3102 36.6068 43.3102 32.7291 43.3102 28.851C43.3102 27.762 44.0211 26.9904 45.0042 27.0001C45.9873 27.0098 46.6719 27.7804 46.673 28.8812C46.6758 30.7994 46.6758 32.719 46.673 34.64Z" fill="white"/>
</svg>
